<svg width="24" height="24" viewBox="0 0 24 24" fill="none" xmlns="http://www.w3.org/2000/svg">
<path d="M12 24C18.6274 24 24 18.6274 24 12C24 5.37258 18.6274 0 12 0C5.37258 0 0 5.37258 0 12C0 18.6274 5.37258 24 12 24Z" fill="#B3FA3F"/>
<path d="M16.4431 16.9411H7.49214C7.39346 16.9403 7.29904 16.9007 7.22926 16.831C7.15947 16.7612 7.11992 16.6668 7.11914 16.5681C7.11992 16.4694 7.15947 16.375 7.22926 16.3052C7.29904 16.2354 7.39346 16.1959 7.49214 16.1951H16.4431C16.5423 16.1951 16.6375 16.2343 16.708 16.3041C16.7784 16.374 16.8183 16.4689 16.8191 16.5681C16.8183 16.6673 16.7784 16.7621 16.708 16.832C16.6375 16.9019 16.5423 16.9411 16.4431 16.9411Z" fill="black"/>
<path d="M15.4582 7.73102C15.291 7.50363 15.0726 7.31877 14.8207 7.19136C14.5688 7.06395 14.2905 6.99756 14.0082 6.99756C13.726 6.99756 13.4476 7.06395 13.1958 7.19136C12.9439 7.31877 12.7255 7.50363 12.5582 7.73102L11.9582 8.33102C11.9332 8.35708 11.9153 8.38926 11.9066 8.42436C11.8978 8.45945 11.8984 8.49622 11.9082 8.53102C12.0984 9.18367 12.4501 9.77782 12.9308 10.2585C13.4114 10.7392 14.0056 11.0909 14.6582 11.281C14.6778 11.2868 14.6979 11.2901 14.7182 11.291C14.745 11.2912 14.7716 11.2859 14.7963 11.2756C14.8211 11.2653 14.8435 11.2502 14.8622 11.231L15.4622 10.631C15.6735 10.4532 15.8467 10.2347 15.9716 9.98853C16.0965 9.74232 16.1705 9.47347 16.1892 9.19802C16.175 8.91634 16.1027 8.64064 15.9769 8.38821C15.8511 8.13577 15.6745 7.91203 15.4582 7.73102Z" fill="black"/>
<path d="M13.7618 11.734C13.6178 11.664 13.4788 11.595 13.3438 11.515C13.2348 11.45 13.1298 11.381 13.0258 11.306C12.929 11.2402 12.8362 11.1687 12.7478 11.092C12.7172 11.0697 12.6887 11.0446 12.6628 11.017C12.4775 10.8598 12.3062 10.6868 12.1508 10.5C12.1232 10.4722 12.0984 10.4417 12.0768 10.409C12.0017 10.3219 11.9319 10.2304 11.8678 10.135C11.797 10.0423 11.7322 9.94508 11.6738 9.84403C11.5938 9.70903 11.5248 9.57603 11.4548 9.43703C11.3848 9.29803 11.3308 9.14303 11.2808 9.00903L8.15777 12.132C8.08798 12.2106 8.04005 12.3061 8.01877 12.409L7.74977 14.309C7.72212 14.4638 7.73066 14.6229 7.77472 14.7738C7.81879 14.9248 7.89718 15.0634 8.00377 15.179C8.1928 15.357 8.44419 15.4536 8.70377 15.448C8.76375 15.448 8.82362 15.443 8.88277 15.433L10.7928 15.164C10.8954 15.1445 10.9904 15.0963 11.0668 15.025L14.1848 11.903C14.0458 11.854 13.9118 11.799 13.7618 11.734Z" fill="black"/>
</svg>
